STARTFONT 2.1
FONT --MS Sans Serif-Regular-R-Normal--14-140-96-72-P-95-WINDOWS-ANSI~2.0
SIZE 14 96 72
FONTBOUNDINGBOX 18 18 0 -3
METRICSSET 2
STARTPROPERTIES 20
FONT_ASCENT 11
PIXEL_SIZE 14
RESOLUTION_X 96
RESOLUTION_Y 72
POINT_SIZE 140
FACE_NAME "MS Sans Serif 14"
COPYRIGHT "(c) Copyright Microsoft Corp. 1987. All rights reserved."
FOUNDRY ""
FAMILY_NAME "MS Sans Serif"
WEIGHT_NAME "Regular"
RELATIVE_WEIGHT 50
SLANT "R"
SPACING "P"
SETWIDTH_NAME "Normal"
RELATIVE_SETWIDTH 50
ADD_STYLE_NAME ""
AVERAGE_WIDTH 95
DEFAULT_CHAR 128
CHARSET_REGISTRY "WINDOWS"
CHARSET_ENCODING "ANSI-2.0"
ENDPROPERTIES
CHARS 224
STARTCHAR space
ENCODING 32
SWIDTH 268 0
DWIDTH 5 0
BBX 0 0 5 15
VVECTOR 8 15
SWIDTH1 0 -1286
DWIDTH1 0 -18
BITMAP 
ENDCHAR
STARTCHAR exclam
ENCODING 33
SWIDTH 268 0
DWIDTH 5 0
BBX 2 11 2 0
VVECTOR 4 15
SWIDTH1 0 -1286
DWIDTH1 0 -18
BITMAP 
C0
C0
C0
C0
C0
C0
C0
C0
00
C0
C0
ENDCHAR
STARTCHAR quotedbl
ENCODING 34
SWIDTH 375 0
DWIDTH 7 0
BBX 5 4 1 7
VVECTOR 4 15
SWIDTH1 0 -1286
DWIDTH1 0 -18
BITMAP 
D8
D8
D8
D8
ENDCHAR
STARTCHAR numbersign
ENCODING 35
SWIDTH 536 0
DWIDTH 10 0
BBX 8 11 1 0
VVECTOR 5 15
SWIDTH1 0 -1286
DWIDTH1 0 -18
BITMAP 
12
12
12
7F
24
24
24
FE
48
48
48
ENDCHAR
STARTCHAR dollar
ENCODING 36
SWIDTH 536 0
DWIDTH 10 0
BBX 9 12 1 -1
VVECTOR 6 15
SWIDTH1 0 -1286
DWIDTH1 0 -18
BITMAP 
0800
3E00
6B00
C980
6800
3800
0E00
0B00
C980
6B00
3E00
0800
ENDCHAR
STARTCHAR percent
ENCODING 37
SWIDTH 857 0
DWIDTH 16 0
BBX 14 11 1 0
VVECTOR 8 15
SWIDTH1 0 -1286
DWIDTH1 0 -18
BITMAP 
7818
CC30
CC60
CCC0
7980
0300
0678
0CCC
18CC
30CC
6078
ENDCHAR
STARTCHAR ampersand
ENCODING 38
SWIDTH 696 0
DWIDTH 13 0
BBX 12 11 1 0
VVECTOR 8 15
SWIDTH1 0 -1286
DWIDTH1 0 -18
BITMAP 
1E00
3300
3300
3300
1E00
3600
6360
C1C0
C1C0
6360
3E30
ENDCHAR
STARTCHAR quotesingle
ENCODING 39
SWIDTH 214 0
DWIDTH 4 0
BBX 2 4 1 7
VVECTOR 2 15
SWIDTH1 0 -1286
DWIDTH1 0 -18
BITMAP 
C0
C0
C0
C0
ENDCHAR
STARTCHAR parenleft
ENCODING 40
SWIDTH 321 0
DWIDTH 6 0
BBX 4 14 1 -3
VVECTOR 3 15
SWIDTH1 0 -1286
DWIDTH1 0 -18
BITMAP 
10
30
60
60
C0
C0
C0
C0
C0
C0
60
60
30
10
ENDCHAR
STARTCHAR parenright
ENCODING 41
SWIDTH 321 0
DWIDTH 6 0
BBX 4 14 1 -3
VVECTOR 3 15
SWIDTH1 0 -1286
DWIDTH1 0 -18
BITMAP 
80
C0
60
60
30
30
30
30
30
30
60
60
C0
80
ENDCHAR
STARTCHAR asterisk
ENCODING 42
SWIDTH 375 0
DWIDTH 7 0
BBX 7 6 0 6
VVECTOR 4 15
SWIDTH1 0 -1286
DWIDTH1 0 -18
BITMAP 
10
92
7C
38
6C
44
ENDCHAR
STARTCHAR plus
ENCODING 43
SWIDTH 589 0
DWIDTH 11 0
BBX 10 7 1 1
VVECTOR 7 15
SWIDTH1 0 -1286
DWIDTH1 0 -18
BITMAP 
0C00
0C00
0C00
FFC0
0C00
0C00
0C00
ENDCHAR
STARTCHAR comma
ENCODING 44
SWIDTH 268 0
DWIDTH 5 0
BBX 2 4 2 -2
VVECTOR 4 15
SWIDTH1 0 -1286
DWIDTH1 0 -18
BITMAP 
C0
C0
40
80
ENDCHAR
STARTCHAR hyphen
ENCODING 45
SWIDTH 321 0
DWIDTH 6 0
BBX 5 1 1 4
VVECTOR 4 15
SWIDTH1 0 -1286
DWIDTH1 0 -18
BITMAP 
F8
ENDCHAR
STARTCHAR period
ENCODING 46
SWIDTH 268 0
DWIDTH 5 0
BBX 2 2 2 0
VVECTOR 4 15
SWIDTH1 0 -1286
DWIDTH1 0 -18
BITMAP 
C0
C0
ENDCHAR
STARTCHAR slash
ENCODING 47
SWIDTH 268 0
DWIDTH 5 0
BBX 5 11 0 0
VVECTOR 3 15
SWIDTH1 0 -1286
DWIDTH1 0 -18
BITMAP 
08
08
18
10
30
20
60
40
C0
80
80
ENDCHAR
STARTCHAR zero
ENCODING 48
SWIDTH 536 0
DWIDTH 10 0
BBX 9 11 1 0
VVECTOR 6 15
SWIDTH1 0 -1286
DWIDTH1 0 -18
BITMAP 
3E00
6300
C180
C180
C180
C180
C180
C180
C180
6300
3E00
ENDCHAR
STARTCHAR one
ENCODING 49
SWIDTH 536 0
DWIDTH 10 0
BBX 5 11 2 0
VVECTOR 4 15
SWIDTH1 0 -1286
DWIDTH1 0 -18
BITMAP 
18
38
F8
18
18
18
18
18
18
18
18
ENDCHAR
STARTCHAR two
ENCODING 50
SWIDTH 536 0
DWIDTH 10 0
BBX 9 11 1 0
VVECTOR 6 15
SWIDTH1 0 -1286
DWIDTH1 0 -18
BITMAP 
3E00
6300
C180
C180
0180
0700
1C00
7000
C000
C000
FF80
ENDCHAR
STARTCHAR three
ENCODING 51
SWIDTH 536 0
DWIDTH 10 0
BBX 9 11 1 0
VVECTOR 6 15
SWIDTH1 0 -1286
DWIDTH1 0 -18
BITMAP 
3E00
6300
C180
0180
0300
0E00
0300
0180
C180
6300
3E00
ENDCHAR
STARTCHAR four
ENCODING 52
SWIDTH 536 0
DWIDTH 10 0
BBX 9 11 1 0
VVECTOR 6 15
SWIDTH1 0 -1286
DWIDTH1 0 -18
BITMAP 
0200
0600
0E00
1600
2600
4600
8600
FF80
0600
0600
0600
ENDCHAR
STARTCHAR five
ENCODING 53
SWIDTH 536 0
DWIDTH 10 0
BBX 9 11 1 0
VVECTOR 6 15
SWIDTH1 0 -1286
DWIDTH1 0 -18
BITMAP 
FF00
C000
C000
DE00
F300
C180
0180
0180
C180
6300
3E00
ENDCHAR
STARTCHAR six
ENCODING 54
SWIDTH 536 0
DWIDTH 10 0
BBX 9 11 1 0
VVECTOR 6 15
SWIDTH1 0 -1286
DWIDTH1 0 -18
BITMAP 
3E00
6300
C180
C000
DE00
E300
C180
C180
C180
6300
3E00
ENDCHAR
STARTCHAR seven
ENCODING 55
SWIDTH 536 0
DWIDTH 10 0
BBX 9 11 1 0
VVECTOR 6 15
SWIDTH1 0 -1286
DWIDTH1 0 -18
BITMAP 
FF80
0180
0300
0600
0C00
0C00
1800
1800
3000
3000
3000
ENDCHAR
STARTCHAR eight
ENCODING 56
SWIDTH 536 0
DWIDTH 10 0
BBX 9 11 1 0
VVECTOR 6 15
SWIDTH1 0 -1286
DWIDTH1 0 -18
BITMAP 
3E00
6300
C180
C180
6300
3E00
6300
C180
C180
6300
3E00
ENDCHAR
STARTCHAR nine
ENCODING 57
SWIDTH 536 0
DWIDTH 10 0
BBX 9 11 1 0
VVECTOR 6 15
SWIDTH1 0 -1286
DWIDTH1 0 -18
BITMAP 
3E00
6300
C180
C180
C180
6380
3D80
0180
C180
6300
3E00
ENDCHAR
STARTCHAR colon
ENCODING 58
SWIDTH 268 0
DWIDTH 5 0
BBX 2 8 2 0
VVECTOR 4 15
SWIDTH1 0 -1286
DWIDTH1 0 -18
BITMAP 
C0
C0
00
00
00
00
C0
C0
ENDCHAR
STARTCHAR semicolon
ENCODING 59
SWIDTH 268 0
DWIDTH 5 0
BBX 2 10 2 -2
VVECTOR 4 15
SWIDTH1 0 -1286
DWIDTH1 0 -18
BITMAP 
C0
C0
00
00
00
00
C0
C0
40
80
ENDCHAR
STARTCHAR less
ENCODING 60
SWIDTH 589 0
DWIDTH 11 0
BBX 10 7 1 1
VVECTOR 7 15
SWIDTH1 0 -1286
DWIDTH1 0 -18
BITMAP 
01C0
0F00
3800
E000
3800
0F00
01C0
ENDCHAR
STARTCHAR equal
ENCODING 61
SWIDTH 589 0
DWIDTH 11 0
BBX 10 3 1 3
VVECTOR 7 15
SWIDTH1 0 -1286
DWIDTH1 0 -18
BITMAP 
FFC0
0000
FFC0
ENDCHAR
STARTCHAR greater
ENCODING 62
SWIDTH 589 0
DWIDTH 11 0
BBX 10 7 1 1
VVECTOR 7 15
SWIDTH1 0 -1286
DWIDTH1 0 -18
BITMAP 
E000
3C00
0700
01C0
0700
3C00
E000
ENDCHAR
STARTCHAR question
ENCODING 63
SWIDTH 536 0
DWIDTH 10 0
BBX 8 11 1 0
VVECTOR 5 15
SWIDTH1 0 -1286
DWIDTH1 0 -18
BITMAP 
3C
66
C3
03
06
0C
18
18
00
18
18
ENDCHAR
STARTCHAR at
ENCODING 64
SWIDTH 1018 0
DWIDTH 19 0
BBX 16 12 2 -2
VVECTOR 11 15
SWIDTH1 0 -1286
DWIDTH1 0 -18
BITMAP 
07F0
180C
6002
41DB
C231
8631
8C63
CC62
47BC
6000
3818
07E0
ENDCHAR
STARTCHAR A
ENCODING 65
SWIDTH 696 0
DWIDTH 13 0
BBX 13 11 0 0
VVECTOR 7 15
SWIDTH1 0 -1286
DWIDTH1 0 -18
BITMAP 
0700
0D80
0D80
18C0
18C0
3060
3FE0
6030
6030
C018
C018
ENDCHAR
STARTCHAR B
ENCODING 66
SWIDTH 643 0
DWIDTH 12 0
BBX 10 11 1 0
VVECTOR 6 15
SWIDTH1 0 -1286
DWIDTH1 0 -18
BITMAP 
FF00
C1C0
C0C0
C0C0
C1C0
FF00
C1C0
C0C0
C0C0
C1C0
FF00
ENDCHAR
STARTCHAR C
ENCODING 67
SWIDTH 696 0
DWIDTH 13 0
BBX 12 11 1 0
VVECTOR 8 15
SWIDTH1 0 -1286
DWIDTH1 0 -18
BITMAP 
1FC0
7070
6030
C000
C000
C000
C000
C000
6030
7070
1FC0
ENDCHAR
STARTCHAR D
ENCODING 68
SWIDTH 696 0
DWIDTH 13 0
BBX 11 11 1 0
VVECTOR 7 15
SWIDTH1 0 -1286
DWIDTH1 0 -18
BITMAP 
FF00
C1C0
C0C0
C060
C060
C060
C060
C060
C0C0
C1C0
FF00
ENDCHAR
STARTCHAR E
ENCODING 69
SWIDTH 696 0
DWIDTH 13 0
BBX 11 11 1 0
VVECTOR 7 15
SWIDTH1 0 -1286
DWIDTH1 0 -18
BITMAP 
FFE0
C000
C000
C000
C000
FFC0
C000
C000
C000
C000
FFE0
ENDCHAR
STARTCHAR F
ENCODING 70
SWIDTH 643 0
DWIDTH 12 0
BBX 11 11 1 0
VVECTOR 7 15
SWIDTH1 0 -1286
DWIDTH1 0 -18
BITMAP 
FFE0
C000
C000
C000
C000
FFC0
C000
C000
C000
C000
C000
ENDCHAR
STARTCHAR G
ENCODING 71
SWIDTH 750 0
DWIDTH 14 0
BBX 12 11 1 0
VVECTOR 7 15
SWIDTH1 0 -1286
DWIDTH1 0 -18
BITMAP 
1FC0
7070
6030
C000
C000
C000
C3F0
C030
6030
70F0
1FB0
ENDCHAR
STARTCHAR H
ENCODING 72
SWIDTH 750 0
DWIDTH 14 0
BBX 12 11 1 0
VVECTOR 7 15
SWIDTH1 0 -1286
DWIDTH1 0 -18
BITMAP 
C030
C030
C030
C030
C030
FFF0
C030
C030
C030
C030
C030
ENDCHAR
STARTCHAR I
ENCODING 73
SWIDTH 214 0
DWIDTH 4 0
BBX 2 11 1 0
VVECTOR 2 15
SWIDTH1 0 -1286
DWIDTH1 0 -18
BITMAP 
C0
C0
C0
C0
C0
C0
C0
C0
C0
C0
C0
ENDCHAR
STARTCHAR J
ENCODING 74
SWIDTH 482 0
DWIDTH 9 0
BBX 8 11 0 0
VVECTOR 4 15
SWIDTH1 0 -1286
DWIDTH1 0 -18
BITMAP 
03
03
03
03
03
03
03
03
C3
C6
7C
ENDCHAR
STARTCHAR K
ENCODING 75
SWIDTH 643 0
DWIDTH 12 0
BBX 11 11 1 0
VVECTOR 7 15
SWIDTH1 0 -1286
DWIDTH1 0 -18
BITMAP 
C180
C300
C600
CC00
D800
FC00
E600
C300
C180
C0C0
C060
ENDCHAR
STARTCHAR L
ENCODING 76
SWIDTH 536 0
DWIDTH 10 0
BBX 9 11 1 0
VVECTOR 6 15
SWIDTH1 0 -1286
DWIDTH1 0 -18
BITMAP 
C000
C000
C000
C000
C000
C000
C000
C000
C000
C000
FF80
ENDCHAR
STARTCHAR M
ENCODING 77
SWIDTH 857 0
DWIDTH 16 0
BBX 14 11 1 0
VVECTOR 8 15
SWIDTH1 0 -1286
DWIDTH1 0 -18
BITMAP 
E01C
F03C
F03C
D86C
D86C
CCCC
CCCC
C78C
C78C
C30C
C30C
ENDCHAR
STARTCHAR N
ENCODING 78
SWIDTH 750 0
DWIDTH 14 0
BBX 12 11 1 0
VVECTOR 7 15
SWIDTH1 0 -1286
DWIDTH1 0 -18
BITMAP 
C030
E030
F030
D830
CC30
C630
C330
C1B0
C0F0
C070
C030
ENDCHAR
STARTCHAR O
ENCODING 79
SWIDTH 804 0
DWIDTH 15 0
BBX 13 11 1 0
VVECTOR 8 15
SWIDTH1 0 -1286
DWIDTH1 0 -18
BITMAP 
1FC0
7070
6030
C018
C018
C018
C018
C018
6030
7070
1FC0
ENDCHAR
STARTCHAR P
ENCODING 80
SWIDTH 643 0
DWIDTH 12 0
BBX 11 11 1 0
VVECTOR 7 15
SWIDTH1 0 -1286
DWIDTH1 0 -18
BITMAP 
FF80
C0E0
C060
C060
C060
C0E0
FF80
C000
C000
C000
C000
ENDCHAR
STARTCHAR Q
ENCODING 81
SWIDTH 804 0
DWIDTH 15 0
BBX 13 12 1 -1
VVECTOR 8 15
SWIDTH1 0 -1286
DWIDTH1 0 -18
BITMAP 
1FC0
7070
6030
C018
C018
C018
C018
C018
61B0
70F0
1FE0
0030
ENDCHAR
STARTCHAR R
ENCODING 82
SWIDTH 696 0
DWIDTH 13 0
BBX 11 11 1 0
VVECTOR 7 15
SWIDTH1 0 -1286
DWIDTH1 0 -18
BITMAP 
FF80
C0E0
C060
C060
C0E0
FF80
C0C0
C060
C060
C060
C060
ENDCHAR
STARTCHAR S
ENCODING 83
SWIDTH 643 0
DWIDTH 12 0
BBX 10 11 1 0
VVECTOR 6 15
SWIDTH1 0 -1286
DWIDTH1 0 -18
BITMAP 
3F00
E180
C0C0
E000
3C00
0F00
01C0
00C0
C0C0
E1C0
3F00
ENDCHAR
STARTCHAR T
ENCODING 84
SWIDTH 643 0
DWIDTH 12 0
BBX 12 11 0 0
VVECTOR 6 15
SWIDTH1 0 -1286
DWIDTH1 0 -18
BITMAP 
FFF0
0600
0600
0600
0600
0600
0600
0600
0600
0600
0600
ENDCHAR
STARTCHAR U
ENCODING 85
SWIDTH 696 0
DWIDTH 13 0
BBX 11 11 1 0
VVECTOR 7 15
SWIDTH1 0 -1286
DWIDTH1 0 -18
BITMAP 
C060
C060
C060
C060
C060
C060
C060
C060
60C0
71C0
1F00
ENDCHAR
STARTCHAR V
ENCODING 86
SWIDTH 696 0
DWIDTH 13 0
BBX 13 11 0 0
VVECTOR 7 15
SWIDTH1 0 -1286
DWIDTH1 0 -18
BITMAP 
C018
C018
6030
6030
3060
3060
18C0
18C0
0D80
0D80
0700
ENDCHAR
STARTCHAR W
ENCODING 87
SWIDTH 964 0
DWIDTH 18 0
BBX 18 11 0 0
VVECTOR 9 15
SWIDTH1 0 -1286
DWIDTH1 0 -18
BITMAP 
C0C0C0
C0C0C0
61E180
61E180
633180
333300
333300
1E1E00
1E1E00
0C0C00
0C0C00
ENDCHAR
STARTCHAR X
ENCODING 88
SWIDTH 643 0
DWIDTH 12 0
BBX 12 11 0 0
VVECTOR 6 15
SWIDTH1 0 -1286
DWIDTH1 0 -18
BITMAP 
C030
6060
30C0
1980
0F00
0600
0F00
1980
30C0
6060
C030
ENDCHAR
STARTCHAR Y
ENCODING 89
SWIDTH 643 0
DWIDTH 12 0
BBX 12 11 0 0
VVECTOR 6 15
SWIDTH1 0 -1286
DWIDTH1 0 -18
BITMAP 
C030
6060
30C0
1980
0F00
0600
0600
0600
0600
0600
0600
ENDCHAR
STARTCHAR Z
ENCODING 90
SWIDTH 643 0
DWIDTH 12 0
BBX 12 11 0 0
VVECTOR 6 15
SWIDTH1 0 -1286
DWIDTH1 0 -18
BITMAP 
7FF0
0060
00C0
0180
0300
0600
0C00
1800
3000
6000
FFF0
ENDCHAR
STARTCHAR bracketleft
ENCODING 91
SWIDTH 268 0
DWIDTH 5 0
BBX 4 13 1 -2
VVECTOR 4 15
SWIDTH1 0 -1286
DWIDTH1 0 -18
BITMAP 
F0
C0
C0
C0
C0
C0
C0
C0
C0
C0
C0
C0
F0
ENDCHAR
STARTCHAR backslash
ENCODING 92
SWIDTH 268 0
DWIDTH 5 0
BBX 5 11 0 0
VVECTOR 3 15
SWIDTH1 0 -1286
DWIDTH1 0 -18
BITMAP 
80
80
C0
40
60
20
30
10
18
08
08
ENDCHAR
STARTCHAR bracketright
ENCODING 93
SWIDTH 268 0
DWIDTH 5 0
BBX 4 13 0 -2
VVECTOR 2 15
SWIDTH1 0 -1286
DWIDTH1 0 -18
BITMAP 
F0
30
30
30
30
30
30
30
30
30
30
30
F0
ENDCHAR
STARTCHAR asciicircum
ENCODING 94
SWIDTH 482 0
DWIDTH 9 0
BBX 7 3 1 8
VVECTOR 5 15
SWIDTH1 0 -1286
DWIDTH1 0 -18
BITMAP 
38
6C
82
ENDCHAR
STARTCHAR underscore
ENCODING 95
SWIDTH 536 0
DWIDTH 10 0
BBX 10 1 0 -2
VVECTOR 5 15
SWIDTH1 0 -1286
DWIDTH1 0 -18
BITMAP 
FFC0
ENDCHAR
STARTCHAR grave
ENCODING 96
SWIDTH 321 0
DWIDTH 6 0
BBX 5 3 1 9
VVECTOR 4 15
SWIDTH1 0 -1286
DWIDTH1 0 -18
BITMAP 
E0
70
18
ENDCHAR
STARTCHAR a
ENCODING 97
SWIDTH 536 0
DWIDTH 10 0
BBX 9 8 1 0
VVECTOR 6 15
SWIDTH1 0 -1286
DWIDTH1 0 -18
BITMAP 
7E00
C300
0300
3F00
C300
C300
C700
7980
ENDCHAR
STARTCHAR b
ENCODING 98
SWIDTH 589 0
DWIDTH 11 0
BBX 9 11 1 0
VVECTOR 6 15
SWIDTH1 0 -1286
DWIDTH1 0 -18
BITMAP 
C000
C000
C000
DE00
E300
C180
C180
C180
C180
E300
DE00
ENDCHAR
STARTCHAR c
ENCODING 99
SWIDTH 482 0
DWIDTH 9 0
BBX 9 8 0 0
VVECTOR 5 15
SWIDTH1 0 -1286
DWIDTH1 0 -18
BITMAP 
3E00
6300
C180
C000
C000
C180
6300
3E00
ENDCHAR
STARTCHAR d
ENCODING 100
SWIDTH 589 0
DWIDTH 11 0
BBX 9 11 1 0
VVECTOR 6 15
SWIDTH1 0 -1286
DWIDTH1 0 -18
BITMAP 
0180
0180
0180
3D80
6380
C180
C180
C180
C180
6380
3D80
ENDCHAR
STARTCHAR e
ENCODING 101
SWIDTH 589 0
DWIDTH 11 0
BBX 9 8 1 0
VVECTOR 6 15
SWIDTH1 0 -1286
DWIDTH1 0 -18
BITMAP 
3E00
6300
C180
FF80
C000
C000
6180
3F00
ENDCHAR
STARTCHAR f
ENCODING 102
SWIDTH 214 0
DWIDTH 4 0
BBX 4 11 0 0
VVECTOR 2 15
SWIDTH1 0 -1286
DWIDTH1 0 -18
BITMAP 
30
60
60
F0
60
60
60
60
60
60
60
ENDCHAR
STARTCHAR g
ENCODING 103
SWIDTH 589 0
DWIDTH 11 0
BBX 9 11 1 -3
VVECTOR 6 15
SWIDTH1 0 -1286
DWIDTH1 0 -18
BITMAP 
3D80
6380
C180
C180
C180
C180
6380
3D80
0180
C300
7E00
ENDCHAR
STARTCHAR h
ENCODING 104
SWIDTH 589 0
DWIDTH 11 0
BBX 9 11 1 0
VVECTOR 6 15
SWIDTH1 0 -1286
DWIDTH1 0 -18
BITMAP 
C000
C000
C000
DF00
E180
C180
C180
C180
C180
C180
C180
ENDCHAR
STARTCHAR i
ENCODING 105
SWIDTH 214 0
DWIDTH 4 0
BBX 2 11 1 0
VVECTOR 2 15
SWIDTH1 0 -1286
DWIDTH1 0 -18
BITMAP 
C0
C0
00
C0
C0
C0
C0
C0
C0
C0
C0
ENDCHAR
STARTCHAR j
ENCODING 106
SWIDTH 214 0
DWIDTH 4 0
BBX 3 14 0 -3
VVECTOR 1 15
SWIDTH1 0 -1286
DWIDTH1 0 -18
BITMAP 
60
60
00
60
60
60
60
60
60
60
60
60
60
C0
ENDCHAR
STARTCHAR k
ENCODING 107
SWIDTH 482 0
DWIDTH 9 0
BBX 8 11 1 0
VVECTOR 6 15
SWIDTH1 0 -1286
DWIDTH1 0 -18
BITMAP 
C0
C0
C0
C6
CC
D8
F0
F8
CC
C6
C3
ENDCHAR
STARTCHAR l
ENCODING 108
SWIDTH 214 0
DWIDTH 4 0
BBX 2 11 1 0
VVECTOR 2 15
SWIDTH1 0 -1286
DWIDTH1 0 -18
BITMAP 
C0
C0
C0
C0
C0
C0
C0
C0
C0
C0
C0
ENDCHAR
STARTCHAR m
ENCODING 109
SWIDTH 857 0
DWIDTH 16 0
BBX 14 8 1 0
VVECTOR 8 15
SWIDTH1 0 -1286
DWIDTH1 0 -18
BITMAP 
DEF8
E38C
C30C
C30C
C30C
C30C
C30C
C30C
ENDCHAR
STARTCHAR n
ENCODING 110
SWIDTH 589 0
DWIDTH 11 0
BBX 9 8 1 0
VVECTOR 6 15
SWIDTH1 0 -1286
DWIDTH1 0 -18
BITMAP 
DF00
E180
C180
C180
C180
C180
C180
C180
ENDCHAR
STARTCHAR o
ENCODING 111
SWIDTH 589 0
DWIDTH 11 0
BBX 9 8 1 0
VVECTOR 6 15
SWIDTH1 0 -1286
DWIDTH1 0 -18
BITMAP 
3E00
6300
C180
C180
C180
C180
6300
3E00
ENDCHAR
STARTCHAR p
ENCODING 112
SWIDTH 589 0
DWIDTH 11 0
BBX 9 11 1 -3
VVECTOR 6 15
SWIDTH1 0 -1286
DWIDTH1 0 -18
BITMAP 
DE00
E300
C180
C180
C180
C180
E300
DE00
C000
C000
C000
ENDCHAR
STARTCHAR q
ENCODING 113
SWIDTH 589 0
DWIDTH 11 0
BBX 9 11 1 -3
VVECTOR 6 15
SWIDTH1 0 -1286
DWIDTH1 0 -18
BITMAP 
3D80
6380
C180
C180
C180
C180
6380
3D80
0180
0180
0180
ENDCHAR
STARTCHAR r
ENCODING 114
SWIDTH 321 0
DWIDTH 6 0
BBX 5 8 1 0
VVECTOR 4 15
SWIDTH1 0 -1286
DWIDTH1 0 -18
BITMAP 
D8
E0
C0
C0
C0
C0
C0
C0
ENDCHAR
STARTCHAR s
ENCODING 115
SWIDTH 482 0
DWIDTH 9 0
BBX 7 8 1 0
VVECTOR 5 15
SWIDTH1 0 -1286
DWIDTH1 0 -18
BITMAP 
7C
C6
C0
70
1C
06
C6
7C
ENDCHAR
STARTCHAR t
ENCODING 116
SWIDTH 214 0
DWIDTH 4 0
BBX 4 10 0 0
VVECTOR 2 15
SWIDTH1 0 -1286
DWIDTH1 0 -18
BITMAP 
60
60
F0
60
60
60
60
60
60
30
ENDCHAR
STARTCHAR u
ENCODING 117
SWIDTH 589 0
DWIDTH 11 0
BBX 9 8 1 0
VVECTOR 6 15
SWIDTH1 0 -1286
DWIDTH1 0 -18
BITMAP 
C180
C180
C180
C180
C180
C180
C380
7D80
ENDCHAR
STARTCHAR v
ENCODING 118
SWIDTH 482 0
DWIDTH 9 0
BBX 9 8 0 0
VVECTOR 5 15
SWIDTH1 0 -1286
DWIDTH1 0 -18
BITMAP 
C180
C180
6300
6300
3600
3600
1C00
1C00
ENDCHAR
STARTCHAR w
ENCODING 119
SWIDTH 750 0
DWIDTH 14 0
BBX 14 8 0 0
VVECTOR 7 15
SWIDTH1 0 -1286
DWIDTH1 0 -18
BITMAP 
C30C
C30C
6798
6798
3CF0
3CF0
1860
1860
ENDCHAR
STARTCHAR x
ENCODING 120
SWIDTH 482 0
DWIDTH 9 0
BBX 9 8 0 0
VVECTOR 5 15
SWIDTH1 0 -1286
DWIDTH1 0 -18
BITMAP 
C180
6300
3600
1C00
1C00
3600
6300
C180
ENDCHAR
STARTCHAR y
ENCODING 121
SWIDTH 482 0
DWIDTH 9 0
BBX 9 11 0 -3
VVECTOR 5 15
SWIDTH1 0 -1286
DWIDTH1 0 -18
BITMAP 
C180
C180
6300
6300
3600
3600
1C00
1C00
1800
1800
7000
ENDCHAR
STARTCHAR z
ENCODING 122
SWIDTH 482 0
DWIDTH 9 0
BBX 9 8 0 0
VVECTOR 5 15
SWIDTH1 0 -1286
DWIDTH1 0 -18
BITMAP 
FF80
0300
0600
0C00
1800
3000
6000
FF80
ENDCHAR
STARTCHAR braceleft
ENCODING 123
SWIDTH 321 0
DWIDTH 6 0
BBX 5 13 1 -2
VVECTOR 4 15
SWIDTH1 0 -1286
DWIDTH1 0 -18
BITMAP 
38
60
60
60
60
60
C0
60
60
60
60
60
38
ENDCHAR
STARTCHAR bar
ENCODING 124
SWIDTH 214 0
DWIDTH 4 0
BBX 2 14 1 -3
VVECTOR 2 15
SWIDTH1 0 -1286
DWIDTH1 0 -18
BITMAP 
C0
C0
C0
C0
C0
C0
C0
C0
C0
C0
C0
C0
C0
C0
ENDCHAR
STARTCHAR braceright
ENCODING 125
SWIDTH 321 0
DWIDTH 6 0
BBX 5 13 0 -2
VVECTOR 2 15
SWIDTH1 0 -1286
DWIDTH1 0 -18
BITMAP 
E0
30
30
30
30
30
18
30
30
30
30
30
E0
ENDCHAR
STARTCHAR asciitilde
ENCODING 126
SWIDTH 589 0
DWIDTH 11 0
BBX 9 2 1 9
VVECTOR 6 15
SWIDTH1 0 -1286
DWIDTH1 0 -18
BITMAP 
7980
CF00
ENDCHAR
STARTCHAR uni007F
ENCODING 127
SWIDTH 321 0
DWIDTH 6 0
BBX 4 11 1 0
VVECTOR 3 15
SWIDTH1 0 -1286
DWIDTH1 0 -18
BITMAP 
F0
F0
F0
F0
F0
F0
F0
F0
F0
F0
F0
ENDCHAR
STARTCHAR char80
ENCODING 128
SWIDTH 321 0
DWIDTH 6 0
BBX 4 11 1 0
VVECTOR 3 15
SWIDTH1 0 -1286
DWIDTH1 0 -18
BITMAP 
F0
F0
F0
F0
F0
F0
F0
F0
F0
F0
F0
ENDCHAR
STARTCHAR char81
ENCODING 129
SWIDTH 321 0
DWIDTH 6 0
BBX 4 11 1 0
VVECTOR 3 15
SWIDTH1 0 -1286
DWIDTH1 0 -18
BITMAP 
F0
F0
F0
F0
F0
F0
F0
F0
F0
F0
F0
ENDCHAR
STARTCHAR char82
ENCODING 130
SWIDTH 321 0
DWIDTH 6 0
BBX 4 11 1 0
VVECTOR 3 15
SWIDTH1 0 -1286
DWIDTH1 0 -18
BITMAP 
F0
F0
F0
F0
F0
F0
F0
F0
F0
F0
F0
ENDCHAR
STARTCHAR char83
ENCODING 131
SWIDTH 321 0
DWIDTH 6 0
BBX 4 11 1 0
VVECTOR 3 15
SWIDTH1 0 -1286
DWIDTH1 0 -18
BITMAP 
F0
F0
F0
F0
F0
F0
F0
F0
F0
F0
F0
ENDCHAR
STARTCHAR char84
ENCODING 132
SWIDTH 321 0
DWIDTH 6 0
BBX 4 11 1 0
VVECTOR 3 15
SWIDTH1 0 -1286
DWIDTH1 0 -18
BITMAP 
F0
F0
F0
F0
F0
F0
F0
F0
F0
F0
F0
ENDCHAR
STARTCHAR char85
ENCODING 133
SWIDTH 321 0
DWIDTH 6 0
BBX 4 11 1 0
VVECTOR 3 15
SWIDTH1 0 -1286
DWIDTH1 0 -18
BITMAP 
F0
F0
F0
F0
F0
F0
F0
F0
F0
F0
F0
ENDCHAR
STARTCHAR char86
ENCODING 134
SWIDTH 321 0
DWIDTH 6 0
BBX 4 11 1 0
VVECTOR 3 15
SWIDTH1 0 -1286
DWIDTH1 0 -18
BITMAP 
F0
F0
F0
F0
F0
F0
F0
F0
F0
F0
F0
ENDCHAR
STARTCHAR char87
ENCODING 135
SWIDTH 321 0
DWIDTH 6 0
BBX 4 11 1 0
VVECTOR 3 15
SWIDTH1 0 -1286
DWIDTH1 0 -18
BITMAP 
F0
F0
F0
F0
F0
F0
F0
F0
F0
F0
F0
ENDCHAR
STARTCHAR char88
ENCODING 136
SWIDTH 321 0
DWIDTH 6 0
BBX 4 11 1 0
VVECTOR 3 15
SWIDTH1 0 -1286
DWIDTH1 0 -18
BITMAP 
F0
F0
F0
F0
F0
F0
F0
F0
F0
F0
F0
ENDCHAR
STARTCHAR char89
ENCODING 137
SWIDTH 321 0
DWIDTH 6 0
BBX 4 11 1 0
VVECTOR 3 15
SWIDTH1 0 -1286
DWIDTH1 0 -18
BITMAP 
F0
F0
F0
F0
F0
F0
F0
F0
F0
F0
F0
ENDCHAR
STARTCHAR char8A
ENCODING 138
SWIDTH 321 0
DWIDTH 6 0
BBX 4 11 1 0
VVECTOR 3 15
SWIDTH1 0 -1286
DWIDTH1 0 -18
BITMAP 
F0
F0
F0
F0
F0
F0
F0
F0
F0
F0
F0
ENDCHAR
STARTCHAR char8B
ENCODING 139
SWIDTH 321 0
DWIDTH 6 0
BBX 4 11 1 0
VVECTOR 3 15
SWIDTH1 0 -1286
DWIDTH1 0 -18
BITMAP 
F0
F0
F0
F0
F0
F0
F0
F0
F0
F0
F0
ENDCHAR
STARTCHAR char8C
ENCODING 140
SWIDTH 321 0
DWIDTH 6 0
BBX 4 11 1 0
VVECTOR 3 15
SWIDTH1 0 -1286
DWIDTH1 0 -18
BITMAP 
F0
F0
F0
F0
F0
F0
F0
F0
F0
F0
F0
ENDCHAR
STARTCHAR char8D
ENCODING 141
SWIDTH 321 0
DWIDTH 6 0
BBX 4 11 1 0
VVECTOR 3 15
SWIDTH1 0 -1286
DWIDTH1 0 -18
BITMAP 
F0
F0
F0
F0
F0
F0
F0
F0
F0
F0
F0
ENDCHAR
STARTCHAR char8E
ENCODING 142
SWIDTH 321 0
DWIDTH 6 0
BBX 4 11 1 0
VVECTOR 3 15
SWIDTH1 0 -1286
DWIDTH1 0 -18
BITMAP 
F0
F0
F0
F0
F0
F0
F0
F0
F0
F0
F0
ENDCHAR
STARTCHAR char8F
ENCODING 143
SWIDTH 321 0
DWIDTH 6 0
BBX 4 11 1 0
VVECTOR 3 15
SWIDTH1 0 -1286
DWIDTH1 0 -18
BITMAP 
F0
F0
F0
F0
F0
F0
F0
F0
F0
F0
F0
ENDCHAR
STARTCHAR char90
ENCODING 144
SWIDTH 321 0
DWIDTH 6 0
BBX 4 11 1 0
VVECTOR 3 15
SWIDTH1 0 -1286
DWIDTH1 0 -18
BITMAP 
F0
F0
F0
F0
F0
F0
F0
F0
F0
F0
F0
ENDCHAR
STARTCHAR quoteleft
ENCODING 145
SWIDTH 268 0
DWIDTH 5 0
BBX 2 4 1 7
VVECTOR 2 15
SWIDTH1 0 -1286
DWIDTH1 0 -18
BITMAP 
40
80
C0
C0
ENDCHAR
STARTCHAR quoteright
ENCODING 146
SWIDTH 268 0
DWIDTH 5 0
BBX 2 4 2 7
VVECTOR 4 15
SWIDTH1 0 -1286
DWIDTH1 0 -18
BITMAP 
C0
C0
40
80
ENDCHAR
STARTCHAR char93
ENCODING 147
SWIDTH 321 0
DWIDTH 6 0
BBX 4 11 1 0
VVECTOR 3 15
SWIDTH1 0 -1286
DWIDTH1 0 -18
BITMAP 
F0
F0
F0
F0
F0
F0
F0
F0
F0
F0
F0
ENDCHAR
STARTCHAR char94
ENCODING 148
SWIDTH 321 0
DWIDTH 6 0
BBX 4 11 1 0
VVECTOR 3 15
SWIDTH1 0 -1286
DWIDTH1 0 -18
BITMAP 
F0
F0
F0
F0
F0
F0
F0
F0
F0
F0
F0
ENDCHAR
STARTCHAR char95
ENCODING 149
SWIDTH 321 0
DWIDTH 6 0
BBX 4 11 1 0
VVECTOR 3 15
SWIDTH1 0 -1286
DWIDTH1 0 -18
BITMAP 
F0
F0
F0
F0
F0
F0
F0
F0
F0
F0
F0
ENDCHAR
STARTCHAR char96
ENCODING 150
SWIDTH 321 0
DWIDTH 6 0
BBX 4 11 1 0
VVECTOR 3 15
SWIDTH1 0 -1286
DWIDTH1 0 -18
BITMAP 
F0
F0
F0
F0
F0
F0
F0
F0
F0
F0
F0
ENDCHAR
STARTCHAR char97
ENCODING 151
SWIDTH 321 0
DWIDTH 6 0
BBX 4 11 1 0
VVECTOR 3 15
SWIDTH1 0 -1286
DWIDTH1 0 -18
BITMAP 
F0
F0
F0
F0
F0
F0
F0
F0
F0
F0
F0
ENDCHAR
STARTCHAR char98
ENCODING 152
SWIDTH 321 0
DWIDTH 6 0
BBX 4 11 1 0
VVECTOR 3 15
SWIDTH1 0 -1286
DWIDTH1 0 -18
BITMAP 
F0
F0
F0
F0
F0
F0
F0
F0
F0
F0
F0
ENDCHAR
STARTCHAR char99
ENCODING 153
SWIDTH 321 0
DWIDTH 6 0
BBX 4 11 1 0
VVECTOR 3 15
SWIDTH1 0 -1286
DWIDTH1 0 -18
BITMAP 
F0
F0
F0
F0
F0
F0
F0
F0
F0
F0
F0
ENDCHAR
STARTCHAR char9A
ENCODING 154
SWIDTH 321 0
DWIDTH 6 0
BBX 4 11 1 0
VVECTOR 3 15
SWIDTH1 0 -1286
DWIDTH1 0 -18
BITMAP 
F0
F0
F0
F0
F0
F0
F0
F0
F0
F0
F0
ENDCHAR
STARTCHAR char9B
ENCODING 155
SWIDTH 321 0
DWIDTH 6 0
BBX 4 11 1 0
VVECTOR 3 15
SWIDTH1 0 -1286
DWIDTH1 0 -18
BITMAP 
F0
F0
F0
F0
F0
F0
F0
F0
F0
F0
F0
ENDCHAR
STARTCHAR char9C
ENCODING 156
SWIDTH 321 0
DWIDTH 6 0
BBX 4 11 1 0
VVECTOR 3 15
SWIDTH1 0 -1286
DWIDTH1 0 -18
BITMAP 
F0
F0
F0
F0
F0
F0
F0
F0
F0
F0
F0
ENDCHAR
STARTCHAR char9D
ENCODING 157
SWIDTH 321 0
DWIDTH 6 0
BBX 4 11 1 0
VVECTOR 3 15
SWIDTH1 0 -1286
DWIDTH1 0 -18
BITMAP 
F0
F0
F0
F0
F0
F0
F0
F0
F0
F0
F0
ENDCHAR
STARTCHAR char9E
ENCODING 158
SWIDTH 321 0
DWIDTH 6 0
BBX 4 11 1 0
VVECTOR 3 15
SWIDTH1 0 -1286
DWIDTH1 0 -18
BITMAP 
F0
F0
F0
F0
F0
F0
F0
F0
F0
F0
F0
ENDCHAR
STARTCHAR char9F
ENCODING 159
SWIDTH 321 0
DWIDTH 6 0
BBX 4 11 1 0
VVECTOR 3 15
SWIDTH1 0 -1286
DWIDTH1 0 -18
BITMAP 
F0
F0
F0
F0
F0
F0
F0
F0
F0
F0
F0
ENDCHAR
STARTCHAR uni00A0
ENCODING 160
SWIDTH 268 0
DWIDTH 5 0
BBX 0 0 5 15
VVECTOR 8 15
SWIDTH1 0 -1286
DWIDTH1 0 -18
BITMAP 
ENDCHAR
STARTCHAR exclamdown
ENCODING 161
SWIDTH 268 0
DWIDTH 5 0
BBX 2 11 1 -3
VVECTOR 2 15
SWIDTH1 0 -1286
DWIDTH1 0 -18
BITMAP 
C0
C0
00
C0
C0
C0
C0
C0
C0
C0
C0
ENDCHAR
STARTCHAR cent
ENCODING 162
SWIDTH 536 0
DWIDTH 10 0
BBX 9 10 1 -1
VVECTOR 6 15
SWIDTH1 0 -1286
DWIDTH1 0 -18
BITMAP 
0100
0200
3F00
6580
C800
C800
D180
6300
3E00
4000
ENDCHAR
STARTCHAR sterling
ENCODING 163
SWIDTH 536 0
DWIDTH 10 0
BBX 9 11 1 0
VVECTOR 6 15
SWIDTH1 0 -1286
DWIDTH1 0 -18
BITMAP 
3E00
E300
C180
C000
6000
FC00
3000
3000
6000
FD80
8700
ENDCHAR
STARTCHAR currency
ENCODING 164
SWIDTH 536 0
DWIDTH 10 0
BBX 9 8 1 3
VVECTOR 6 15
SWIDTH1 0 -1286
DWIDTH1 0 -18
BITMAP 
8080
5D00
2200
4100
4100
2200
5D00
8080
ENDCHAR
STARTCHAR yen
ENCODING 165
SWIDTH 536 0
DWIDTH 10 0
BBX 10 11 0 0
VVECTOR 5 15
SWIDTH1 0 -1286
DWIDTH1 0 -18
BITMAP 
8040
C0C0
6180
3300
FFC0
0C00
FFC0
0C00
0C00
0C00
0C00
ENDCHAR
STARTCHAR brokenbar
ENCODING 166
SWIDTH 214 0
DWIDTH 4 0
BBX 2 12 1 -2
VVECTOR 2 15
SWIDTH1 0 -1286
DWIDTH1 0 -18
BITMAP 
C0
C0
C0
C0
C0
00
00
C0
C0
C0
C0
C0
ENDCHAR
STARTCHAR section
ENCODING 167
SWIDTH 536 0
DWIDTH 10 0
BBX 8 12 1 -1
VVECTOR 5 15
SWIDTH1 0 -1286
DWIDTH1 0 -18
BITMAP 
3C
66
30
78
CC
C6
63
33
1E
0C
66
3C
ENDCHAR
STARTCHAR dieresis
ENCODING 168
SWIDTH 321 0
DWIDTH 6 0
BBX 5 2 1 10
VVECTOR 4 15
SWIDTH1 0 -1286
DWIDTH1 0 -18
BITMAP 
D8
D8
ENDCHAR
STARTCHAR copyright
ENCODING 169
SWIDTH 750 0
DWIDTH 14 0
BBX 13 10 1 0
VVECTOR 8 15
SWIDTH1 0 -1286
DWIDTH1 0 -18
BITMAP 
0F80
3060
4F90
9CC8
9808
9808
9CC8
4F90
3060
0F80
ENDCHAR
STARTCHAR ordfeminine
ENCODING 170
SWIDTH 375 0
DWIDTH 7 0
BBX 6 8 1 3
VVECTOR 5 15
SWIDTH1 0 -1286
DWIDTH1 0 -18
BITMAP 
78
0C
7C
CC
CC
7C
00
FC
ENDCHAR
STARTCHAR guillemotleft
ENCODING 171
SWIDTH 536 0
DWIDTH 10 0
BBX 8 5 1 1
VVECTOR 5 15
SWIDTH1 0 -1286
DWIDTH1 0 -18
BITMAP 
33
66
CC
66
33
ENDCHAR
STARTCHAR logicalnot
ENCODING 172
SWIDTH 589 0
DWIDTH 11 0
BBX 9 3 1 3
VVECTOR 6 15
SWIDTH1 0 -1286
DWIDTH1 0 -18
BITMAP 
FF80
0180
0180
ENDCHAR
STARTCHAR uni00AD
ENCODING 173
SWIDTH 321 0
DWIDTH 6 0
BBX 6 1 0 4
VVECTOR 3 15
SWIDTH1 0 -1286
DWIDTH1 0 -18
BITMAP 
FC
ENDCHAR
STARTCHAR registered
ENCODING 174
SWIDTH 750 0
DWIDTH 14 0
BBX 13 10 1 0
VVECTOR 8 15
SWIDTH1 0 -1286
DWIDTH1 0 -18
BITMAP 
0F80
3060
4F90
8CC8
8CC8
8F88
8CC8
4CD0
3060
0F80
ENDCHAR
STARTCHAR macron
ENCODING 175
SWIDTH 536 0
DWIDTH 10 0
BBX 10 1 0 12
VVECTOR 5 15
SWIDTH1 0 -1286
DWIDTH1 0 -18
BITMAP 
FFC0
ENDCHAR
STARTCHAR degree
ENCODING 176
SWIDTH 321 0
DWIDTH 6 0
BBX 6 4 0 7
VVECTOR 3 15
SWIDTH1 0 -1286
DWIDTH1 0 -18
BITMAP 
78
CC
CC
78
ENDCHAR
STARTCHAR plusminus
ENCODING 177
SWIDTH 589 0
DWIDTH 11 0
BBX 10 9 1 0
VVECTOR 7 15
SWIDTH1 0 -1286
DWIDTH1 0 -18
BITMAP 
0C00
0C00
0C00
FFC0
0C00
0C00
0C00
0000
FFC0
ENDCHAR
STARTCHAR uni00B2
ENCODING 178
SWIDTH 268 0
DWIDTH 5 0
BBX 5 6 0 5
VVECTOR 3 15
SWIDTH1 0 -1286
DWIDTH1 0 -18
BITMAP 
70
D8
18
70
C0
F8
ENDCHAR
STARTCHAR uni00B3
ENCODING 179
SWIDTH 268 0
DWIDTH 5 0
BBX 5 6 0 5
VVECTOR 3 15
SWIDTH1 0 -1286
DWIDTH1 0 -18
BITMAP 
70
D8
30
18
D8
70
ENDCHAR
STARTCHAR acute
ENCODING 180
SWIDTH 321 0
DWIDTH 6 0
BBX 5 3 1 9
VVECTOR 4 15
SWIDTH1 0 -1286
DWIDTH1 0 -18
BITMAP 
38
70
C0
ENDCHAR
STARTCHAR mu
ENCODING 181
SWIDTH 482 0
DWIDTH 9 0
BBX 8 10 1 -3
VVECTOR 6 15
SWIDTH1 0 -1286
DWIDTH1 0 -18
BITMAP 
C6
C6
C6
C6
C6
C6
FB
C0
C0
C0
ENDCHAR
STARTCHAR paragraph
ENCODING 182
SWIDTH 536 0
DWIDTH 10 0
BBX 8 11 1 -1
VVECTOR 5 15
SWIDTH1 0 -1286
DWIDTH1 0 -18
BITMAP 
7F
F2
F2
F2
72
12
12
12
12
12
12
ENDCHAR
STARTCHAR periodcentered
ENCODING 183
SWIDTH 268 0
DWIDTH 5 0
BBX 2 2 2 4
VVECTOR 4 15
SWIDTH1 0 -1286
DWIDTH1 0 -18
BITMAP 
C0
C0
ENDCHAR
STARTCHAR cedilla
ENCODING 184
SWIDTH 321 0
DWIDTH 6 0
BBX 4 3 1 -3
VVECTOR 3 15
SWIDTH1 0 -1286
DWIDTH1 0 -18
BITMAP 
60
30
E0
ENDCHAR
STARTCHAR uni00B9
ENCODING 185
SWIDTH 268 0
DWIDTH 5 0
BBX 3 6 1 5
VVECTOR 3 15
SWIDTH1 0 -1286
DWIDTH1 0 -18
BITMAP 
60
E0
60
60
60
60
ENDCHAR
STARTCHAR ordmasculine
ENCODING 186
SWIDTH 375 0
DWIDTH 7 0
BBX 6 8 1 3
VVECTOR 5 15
SWIDTH1 0 -1286
DWIDTH1 0 -18
BITMAP 
78
CC
CC
CC
CC
78
00
FC
ENDCHAR
STARTCHAR guillemotright
ENCODING 187
SWIDTH 536 0
DWIDTH 10 0
BBX 8 5 1 1
VVECTOR 5 15
SWIDTH1 0 -1286
DWIDTH1 0 -18
BITMAP 
CC
66
33
66
CC
ENDCHAR
STARTCHAR onequarter
ENCODING 188
SWIDTH 750 0
DWIDTH 14 0
BBX 12 11 1 0
VVECTOR 7 15
SWIDTH1 0 -1286
DWIDTH1 0 -18
BITMAP 
6030
E060
60C0
6180
6300
6630
0C70
18B0
3130
61F0
C030
ENDCHAR
STARTCHAR onehalf
ENCODING 189
SWIDTH 750 0
DWIDTH 14 0
BBX 12 11 1 0
VVECTOR 7 15
SWIDTH1 0 -1286
DWIDTH1 0 -18
BITMAP 
6030
E060
60C0
6180
6300
66E0
0DB0
1830
30E0
6180
C1F0
ENDCHAR
STARTCHAR threequarters
ENCODING 190
SWIDTH 750 0
DWIDTH 14 0
BBX 12 11 1 0
VVECTOR 7 15
SWIDTH1 0 -1286
DWIDTH1 0 -18
BITMAP 
7030
D860
30C0
1980
DB00
7630
0C70
18B0
3130
61F0
C030
ENDCHAR
STARTCHAR questiondown
ENCODING 191
SWIDTH 536 0
DWIDTH 10 0
BBX 8 11 1 -3
VVECTOR 5 15
SWIDTH1 0 -1286
DWIDTH1 0 -18
BITMAP 
18
18
00
18
18
30
60
C0
C3
66
3C
ENDCHAR
STARTCHAR Agrave
ENCODING 192
SWIDTH 696 0
DWIDTH 13 0
BBX 13 15 0 0
VVECTOR 7 15
SWIDTH1 0 -1286
DWIDTH1 0 -18
BITMAP 
1C00
0E00
0300
0000
0700
0D80
0D80
18C0
18C0
3060
3FE0
6030
6030
C018
C018
ENDCHAR
STARTCHAR Aacute
ENCODING 193
SWIDTH 696 0
DWIDTH 13 0
BBX 13 15 0 0
VVECTOR 7 15
SWIDTH1 0 -1286
DWIDTH1 0 -18
BITMAP 
01C0
0380
0600
0000
0700
0D80
0D80
18C0
18C0
3060
3FE0
6030
6030
C018
C018
ENDCHAR
STARTCHAR Acircumflex
ENCODING 194
SWIDTH 696 0
DWIDTH 13 0
BBX 13 15 0 0
VVECTOR 7 15
SWIDTH1 0 -1286
DWIDTH1 0 -18
BITMAP 
0700
0D80
1040
0000
0700
0D80
0D80
18C0
18C0
3060
3FE0
6030
6030
C018
C018
ENDCHAR
STARTCHAR Atilde
ENCODING 195
SWIDTH 696 0
DWIDTH 13 0
BBX 13 15 0 0
VVECTOR 7 15
SWIDTH1 0 -1286
DWIDTH1 0 -18
BITMAP 
1E60
33C0
0000
0000
0700
0D80
0D80
18C0
18C0
3060
3FE0
6030
6030
C018
C018
ENDCHAR
STARTCHAR Adieresis
ENCODING 196
SWIDTH 696 0
DWIDTH 13 0
BBX 13 15 0 0
VVECTOR 7 15
SWIDTH1 0 -1286
DWIDTH1 0 -18
BITMAP 
18C0
18C0
0000
0000
0700
0D80
0D80
18C0
18C0
3060
3FE0
6030
6030
C018
C018
ENDCHAR
STARTCHAR Aring
ENCODING 197
SWIDTH 696 0
DWIDTH 13 0
BBX 13 15 0 0
VVECTOR 7 15
SWIDTH1 0 -1286
DWIDTH1 0 -18
BITMAP 
0700
0880
0880
0700
0700
0D80
0D80
18C0
18C0
3060
3FE0
6030
6030
C018
C018
ENDCHAR
STARTCHAR AE
ENCODING 198
SWIDTH 1018 0
DWIDTH 19 0
BBX 18 11 0 0
VVECTOR 9 15
SWIDTH1 0 -1286
DWIDTH1 0 -18
BITMAP 
07FFC0
0CC000
0CC000
18C000
18C000
30FF80
3FC000
60C000
60C000
C0C000
C0FFC0
ENDCHAR
STARTCHAR Ccedilla
ENCODING 199
SWIDTH 696 0
DWIDTH 13 0
BBX 12 14 1 -3
VVECTOR 8 15
SWIDTH1 0 -1286
DWIDTH1 0 -18
BITMAP 
1FC0
7070
6030
C000
C000
C000
C000
C000
6030
7070
1FC0
0300
0180
0700
ENDCHAR
STARTCHAR Egrave
ENCODING 200
SWIDTH 696 0
DWIDTH 13 0
BBX 11 15 1 0
VVECTOR 7 15
SWIDTH1 0 -1286
DWIDTH1 0 -18
BITMAP 
3800
1C00
0600
0000
FFE0
C000
C000
C000
C000
FFC0
C000
C000
C000
C000
FFE0
ENDCHAR
STARTCHAR Eacute
ENCODING 201
SWIDTH 696 0
DWIDTH 13 0
BBX 11 15 1 0
VVECTOR 7 15
SWIDTH1 0 -1286
DWIDTH1 0 -18
BITMAP 
0380
0700
0C00
0000
FFE0
C000
C000
C000
C000
FFC0
C000
C000
C000
C000
FFE0
ENDCHAR
STARTCHAR Ecircumflex
ENCODING 202
SWIDTH 696 0
DWIDTH 13 0
BBX 11 15 1 0
VVECTOR 7 15
SWIDTH1 0 -1286
DWIDTH1 0 -18
BITMAP 
0E00
1B00
2080
0000
FFE0
C000
C000
C000
C000
FFC0
C000
C000
C000
C000
FFE0
ENDCHAR
STARTCHAR Edieresis
ENCODING 203
SWIDTH 696 0
DWIDTH 13 0
BBX 11 15 1 0
VVECTOR 7 15
SWIDTH1 0 -1286
DWIDTH1 0 -18
BITMAP 
3180
3180
0000
0000
FFE0
C000
C000
C000
C000
FFC0
C000
C000
C000
C000
FFE0
ENDCHAR
STARTCHAR Igrave
ENCODING 204
SWIDTH 214 0
DWIDTH 4 0
BBX 4 15 0 0
VVECTOR 2 15
SWIDTH1 0 -1286
DWIDTH1 0 -18
BITMAP 
E0
70
10
00
60
60
60
60
60
60
60
60
60
60
60
ENDCHAR
STARTCHAR Iacute
ENCODING 205
SWIDTH 214 0
DWIDTH 4 0
BBX 4 15 0 0
VVECTOR 2 15
SWIDTH1 0 -1286
DWIDTH1 0 -18
BITMAP 
70
E0
80
00
60
60
60
60
60
60
60
60
60
60
60
ENDCHAR
STARTCHAR Icircumflex
ENCODING 206
SWIDTH 214 0
DWIDTH 4 0
BBX 4 15 0 0
VVECTOR 2 15
SWIDTH1 0 -1286
DWIDTH1 0 -18
BITMAP 
60
F0
90
00
60
60
60
60
60
60
60
60
60
60
60
ENDCHAR
STARTCHAR Idieresis
ENCODING 207
SWIDTH 321 0
DWIDTH 6 0
BBX 6 15 0 0
VVECTOR 3 15
SWIDTH1 0 -1286
DWIDTH1 0 -18
BITMAP 
CC
CC
00
00
30
30
30
30
30
30
30
30
30
30
30
ENDCHAR
STARTCHAR Eth
ENCODING 208
SWIDTH 696 0
DWIDTH 13 0
BBX 12 11 0 0
VVECTOR 6 15
SWIDTH1 0 -1286
DWIDTH1 0 -18
BITMAP 
7F80
60E0
6060
6030
6030
FC30
6030
6030
6060
60E0
7F80
ENDCHAR
STARTCHAR Ntilde
ENCODING 209
SWIDTH 750 0
DWIDTH 14 0
BBX 12 15 1 0
VVECTOR 7 15
SWIDTH1 0 -1286
DWIDTH1 0 -18
BITMAP 
3E60
67C0
0000
0000
C030
E030
F030
D830
CC30
C630
C330
C1B0
C0F0
C070
C030
ENDCHAR
STARTCHAR Ograve
ENCODING 210
SWIDTH 804 0
DWIDTH 15 0
BBX 13 15 1 0
VVECTOR 8 15
SWIDTH1 0 -1286
DWIDTH1 0 -18
BITMAP 
1C00
0E00
0300
0000
1FC0
7070
6030
C018
C018
C018
C018
C018
6030
7070
1FC0
ENDCHAR
STARTCHAR Oacute
ENCODING 211
SWIDTH 804 0
DWIDTH 15 0
BBX 13 15 1 0
VVECTOR 8 15
SWIDTH1 0 -1286
DWIDTH1 0 -18
BITMAP 
01C0
0380
0600
0000
1FC0
7070
6030
C018
C018
C018
C018
C018
6030
7070
1FC0
ENDCHAR
STARTCHAR Ocircumflex
ENCODING 212
SWIDTH 804 0
DWIDTH 15 0
BBX 13 15 1 0
VVECTOR 8 15
SWIDTH1 0 -1286
DWIDTH1 0 -18
BITMAP 
0700
0D80
1040
0000
1FC0
7070
6030
C018
C018
C018
C018
C018
6030
7070
1FC0
ENDCHAR
STARTCHAR Otilde
ENCODING 213
SWIDTH 804 0
DWIDTH 15 0
BBX 13 15 1 0
VVECTOR 8 15
SWIDTH1 0 -1286
DWIDTH1 0 -18
BITMAP 
1E60
33C0
0000
0000
1FC0
7070
6030
C018
C018
C018
C018
C018
6030
7070
1FC0
ENDCHAR
STARTCHAR Odieresis
ENCODING 214
SWIDTH 804 0
DWIDTH 15 0
BBX 13 15 1 0
VVECTOR 8 15
SWIDTH1 0 -1286
DWIDTH1 0 -18
BITMAP 
18C0
18C0
0000
0000
1FC0
7070
6030
C018
C018
C018
C018
C018
6030
7070
1FC0
ENDCHAR
STARTCHAR multiply
ENCODING 215
SWIDTH 589 0
DWIDTH 11 0
BBX 9 7 1 1
VVECTOR 6 15
SWIDTH1 0 -1286
DWIDTH1 0 -18
BITMAP 
C180
6300
3600
1C00
3600
6300
C180
ENDCHAR
STARTCHAR Oslash
ENCODING 216
SWIDTH 804 0
DWIDTH 15 0
BBX 13 11 1 0
VVECTOR 8 15
SWIDTH1 0 -1286
DWIDTH1 0 -18
BITMAP 
1FD8
7030
6070
C0D8
C198
C318
C618
CC18
5830
7070
7FC0
ENDCHAR
STARTCHAR Ugrave
ENCODING 217
SWIDTH 696 0
DWIDTH 13 0
BBX 11 15 1 0
VVECTOR 7 15
SWIDTH1 0 -1286
DWIDTH1 0 -18
BITMAP 
3800
1C00
0600
0000
C060
C060
C060
C060
C060
C060
C060
C060
60C0
71C0
1F00
ENDCHAR
STARTCHAR Uacute
ENCODING 218
SWIDTH 696 0
DWIDTH 13 0
BBX 11 15 1 0
VVECTOR 7 15
SWIDTH1 0 -1286
DWIDTH1 0 -18
BITMAP 
0380
0700
0C00
0000
C060
C060
C060
C060
C060
C060
C060
C060
60C0
71C0
1F00
ENDCHAR
STARTCHAR Ucircumflex
ENCODING 219
SWIDTH 696 0
DWIDTH 13 0
BBX 11 15 1 0
VVECTOR 7 15
SWIDTH1 0 -1286
DWIDTH1 0 -18
BITMAP 
0E00
1B00
2080
0000
C060
C060
C060
C060
C060
C060
C060
C060
60C0
71C0
1F00
ENDCHAR
STARTCHAR Udieresis
ENCODING 220
SWIDTH 696 0
DWIDTH 13 0
BBX 11 15 1 0
VVECTOR 7 15
SWIDTH1 0 -1286
DWIDTH1 0 -18
BITMAP 
3180
3180
0000
0000
C060
C060
C060
C060
C060
C060
C060
C060
60C0
71C0
1F00
ENDCHAR
STARTCHAR Yacute
ENCODING 221
SWIDTH 643 0
DWIDTH 12 0
BBX 12 15 0 0
VVECTOR 6 15
SWIDTH1 0 -1286
DWIDTH1 0 -18
BITMAP 
01C0
0380
0600
0000
C030
6060
30C0
1980
0F00
0600
0600
0600
0600
0600
0600
ENDCHAR
STARTCHAR Thorn
ENCODING 222
SWIDTH 696 0
DWIDTH 13 0
BBX 11 11 1 0
VVECTOR 7 15
SWIDTH1 0 -1286
DWIDTH1 0 -18
BITMAP 
C000
C000
FFC0
C0E0
C060
C060
C060
C0E0
FFC0
C000
C000
ENDCHAR
STARTCHAR germandbls
ENCODING 223
SWIDTH 589 0
DWIDTH 11 0
BBX 9 11 1 0
VVECTOR 6 15
SWIDTH1 0 -1286
DWIDTH1 0 -18
BITMAP 
3E00
E380
C180
C180
C380
CE00
C300
C180
C180
C380
DE00
ENDCHAR
STARTCHAR agrave
ENCODING 224
SWIDTH 536 0
DWIDTH 10 0
BBX 9 12 1 0
VVECTOR 6 15
SWIDTH1 0 -1286
DWIDTH1 0 -18
BITMAP 
7000
3800
0C00
0000
7E00
C300
0300
3F00
C300
C300
C700
7980
ENDCHAR
STARTCHAR aacute
ENCODING 225
SWIDTH 536 0
DWIDTH 10 0
BBX 9 12 1 0
VVECTOR 6 15
SWIDTH1 0 -1286
DWIDTH1 0 -18
BITMAP 
0700
0E00
1800
0000
7E00
C300
0300
3F00
C300
C300
C700
7980
ENDCHAR
STARTCHAR acircumflex
ENCODING 226
SWIDTH 536 0
DWIDTH 10 0
BBX 9 12 1 0
VVECTOR 6 15
SWIDTH1 0 -1286
DWIDTH1 0 -18
BITMAP 
1C00
3600
4100
0000
7E00
C300
0300
3F00
C300
C300
C700
7980
ENDCHAR
STARTCHAR atilde
ENCODING 227
SWIDTH 536 0
DWIDTH 10 0
BBX 9 12 1 0
VVECTOR 6 15
SWIDTH1 0 -1286
DWIDTH1 0 -18
BITMAP 
3B00
6E00
0000
0000
7E00
C300
0300
3F00
C300
C300
C700
7980
ENDCHAR
STARTCHAR adieresis
ENCODING 228
SWIDTH 536 0
DWIDTH 10 0
BBX 9 12 1 0
VVECTOR 6 15
SWIDTH1 0 -1286
DWIDTH1 0 -18
BITMAP 
6300
6300
0000
0000
7E00
C300
0300
3F00
C300
C300
C700
7980
ENDCHAR
STARTCHAR aring
ENCODING 229
SWIDTH 536 0
DWIDTH 10 0
BBX 9 13 1 0
VVECTOR 6 15
SWIDTH1 0 -1286
DWIDTH1 0 -18
BITMAP 
1C00
2200
2200
1C00
0000
7E00
C300
0300
3F00
C300
C300
C700
7980
ENDCHAR
STARTCHAR ae
ENCODING 230
SWIDTH 911 0
DWIDTH 17 0
BBX 15 8 1 0
VVECTOR 9 15
SWIDTH1 0 -1286
DWIDTH1 0 -18
BITMAP 
7EF8
C38C
0306
3FFE
C300
C300
C786
78FC
ENDCHAR
STARTCHAR ccedilla
ENCODING 231
SWIDTH 536 0
DWIDTH 10 0
BBX 9 11 1 -3
VVECTOR 6 15
SWIDTH1 0 -1286
DWIDTH1 0 -18
BITMAP 
3E00
6300
C180
C000
C000
C180
6300
3E00
0C00
0600
1C00
ENDCHAR
STARTCHAR egrave
ENCODING 232
SWIDTH 589 0
DWIDTH 11 0
BBX 9 12 1 0
VVECTOR 6 15
SWIDTH1 0 -1286
DWIDTH1 0 -18
BITMAP 
7000
3800
0C00
0000
3E00
6300
C180
FF80
C000
C000
6180
3F00
ENDCHAR
STARTCHAR eacute
ENCODING 233
SWIDTH 589 0
DWIDTH 11 0
BBX 9 12 1 0
VVECTOR 6 15
SWIDTH1 0 -1286
DWIDTH1 0 -18
BITMAP 
0700
0E00
1800
0000
3E00
6300
C180
FF80
C000
C000
6180
3F00
ENDCHAR
STARTCHAR ecircumflex
ENCODING 234
SWIDTH 589 0
DWIDTH 11 0
BBX 9 12 1 0
VVECTOR 6 15
SWIDTH1 0 -1286
DWIDTH1 0 -18
BITMAP 
1C00
3600
4100
0000
3E00
6300
C180
FF80
C000
C000
6180
3F00
ENDCHAR
STARTCHAR edieresis
ENCODING 235
SWIDTH 589 0
DWIDTH 11 0
BBX 9 12 1 0
VVECTOR 6 15
SWIDTH1 0 -1286
DWIDTH1 0 -18
BITMAP 
6300
6300
0000
0000
3E00
6300
C180
FF80
C000
C000
6180
3F00
ENDCHAR
STARTCHAR igrave
ENCODING 236
SWIDTH 214 0
DWIDTH 4 0
BBX 4 12 0 0
VVECTOR 2 15
SWIDTH1 0 -1286
DWIDTH1 0 -18
BITMAP 
E0
70
10
00
60
60
60
60
60
60
60
60
ENDCHAR
STARTCHAR iacute
ENCODING 237
SWIDTH 214 0
DWIDTH 4 0
BBX 4 12 0 0
VVECTOR 2 15
SWIDTH1 0 -1286
DWIDTH1 0 -18
BITMAP 
70
E0
80
00
60
60
60
60
60
60
60
60
ENDCHAR
STARTCHAR icircumflex
ENCODING 238
SWIDTH 214 0
DWIDTH 4 0
BBX 4 12 0 0
VVECTOR 2 15
SWIDTH1 0 -1286
DWIDTH1 0 -18
BITMAP 
60
F0
90
00
60
60
60
60
60
60
60
60
ENDCHAR
STARTCHAR idieresis
ENCODING 239
SWIDTH 214 0
DWIDTH 4 0
BBX 4 12 0 0
VVECTOR 2 15
SWIDTH1 0 -1286
DWIDTH1 0 -18
BITMAP 
90
90
00
00
60
60
60
60
60
60
60
60
ENDCHAR
STARTCHAR eth
ENCODING 240
SWIDTH 589 0
DWIDTH 11 0
BBX 9 11 1 0
VVECTOR 6 15
SWIDTH1 0 -1286
DWIDTH1 0 -18
BITMAP 
7300
1C00
6600
1F00
6300
C180
C180
C180
C180
6300
3E00
ENDCHAR
STARTCHAR ntilde
ENCODING 241
SWIDTH 589 0
DWIDTH 11 0
BBX 9 12 1 0
VVECTOR 6 15
SWIDTH1 0 -1286
DWIDTH1 0 -18
BITMAP 
7980
CF00
0000
0000
DF00
E180
C180
C180
C180
C180
C180
C180
ENDCHAR
STARTCHAR ograve
ENCODING 242
SWIDTH 589 0
DWIDTH 11 0
BBX 9 12 1 0
VVECTOR 6 15
SWIDTH1 0 -1286
DWIDTH1 0 -18
BITMAP 
7000
3800
0C00
0000
3E00
6300
C180
C180
C180
C180
6300
3E00
ENDCHAR
STARTCHAR oacute
ENCODING 243
SWIDTH 589 0
DWIDTH 11 0
BBX 9 12 1 0
VVECTOR 6 15
SWIDTH1 0 -1286
DWIDTH1 0 -18
BITMAP 
0700
0E00
1800
0000
3E00
6300
C180
C180
C180
C180
6300
3E00
ENDCHAR
STARTCHAR ocircumflex
ENCODING 244
SWIDTH 589 0
DWIDTH 11 0
BBX 9 12 1 0
VVECTOR 6 15
SWIDTH1 0 -1286
DWIDTH1 0 -18
BITMAP 
1C00
3600
4100
0000
3E00
6300
C180
C180
C180
C180
6300
3E00
ENDCHAR
STARTCHAR otilde
ENCODING 245
SWIDTH 589 0
DWIDTH 11 0
BBX 9 12 1 0
VVECTOR 6 15
SWIDTH1 0 -1286
DWIDTH1 0 -18
BITMAP 
7980
CF00
0000
0000
3E00
6300
C180
C180
C180
C180
6300
3E00
ENDCHAR
STARTCHAR odieresis
ENCODING 246
SWIDTH 589 0
DWIDTH 11 0
BBX 9 12 1 0
VVECTOR 6 15
SWIDTH1 0 -1286
DWIDTH1 0 -18
BITMAP 
6300
6300
0000
0000
3E00
6300
C180
C180
C180
C180
6300
3E00
ENDCHAR
STARTCHAR divide
ENCODING 247
SWIDTH 589 0
DWIDTH 11 0
BBX 10 7 1 1
VVECTOR 7 15
SWIDTH1 0 -1286
DWIDTH1 0 -18
BITMAP 
0C00
0C00
0000
FFC0
0000
0C00
0C00
ENDCHAR
STARTCHAR oslash
ENCODING 248
SWIDTH 589 0
DWIDTH 11 0
BBX 9 8 1 0
VVECTOR 6 15
SWIDTH1 0 -1286
DWIDTH1 0 -18
BITMAP 
3E80
6300
C580
C980
C980
D180
6300
BE00
ENDCHAR
STARTCHAR ugrave
ENCODING 249
SWIDTH 589 0
DWIDTH 11 0
BBX 9 12 1 0
VVECTOR 6 15
SWIDTH1 0 -1286
DWIDTH1 0 -18
BITMAP 
7000
3800
0C00
0000
C180
C180
C180
C180
C180
C180
C380
7D80
ENDCHAR
STARTCHAR uacute
ENCODING 250
SWIDTH 589 0
DWIDTH 11 0
BBX 9 12 1 0
VVECTOR 6 15
SWIDTH1 0 -1286
DWIDTH1 0 -18
BITMAP 
0700
0E00
1800
0000
C180
C180
C180
C180
C180
C180
C380
7D80
ENDCHAR
STARTCHAR ucircumflex
ENCODING 251
SWIDTH 589 0
DWIDTH 11 0
BBX 9 12 1 0
VVECTOR 6 15
SWIDTH1 0 -1286
DWIDTH1 0 -18
BITMAP 
1C00
3600
4100
0000
C180
C180
C180
C180
C180
C180
C380
7D80
ENDCHAR
STARTCHAR udieresis
ENCODING 252
SWIDTH 589 0
DWIDTH 11 0
BBX 9 12 1 0
VVECTOR 6 15
SWIDTH1 0 -1286
DWIDTH1 0 -18
BITMAP 
6300
6300
0000
0000
C180
C180
C180
C180
C180
C180
C380
7D80
ENDCHAR
STARTCHAR yacute
ENCODING 253
SWIDTH 482 0
DWIDTH 9 0
BBX 9 15 0 -3
VVECTOR 5 15
SWIDTH1 0 -1286
DWIDTH1 0 -18
BITMAP 
0700
0E00
1800
0000
C180
C180
6300
6300
3600
3600
1C00
1C00
1800
1800
7000
ENDCHAR
STARTCHAR thorn
ENCODING 254
SWIDTH 589 0
DWIDTH 11 0
BBX 9 14 1 -3
VVECTOR 6 15
SWIDTH1 0 -1286
DWIDTH1 0 -18
BITMAP 
C000
C000
C000
DE00
E300
C180
C180
C180
C180
E300
DE00
C000
C000
C000
ENDCHAR
STARTCHAR ydieresis
ENCODING 255
SWIDTH 482 0
DWIDTH 9 0
BBX 9 15 0 -3
VVECTOR 5 15
SWIDTH1 0 -1286
DWIDTH1 0 -18
BITMAP 
6300
6300
0000
0000
C180
C180
6300
6300
3600
3600
1C00
1C00
1800
1800
7000
ENDCHAR
ENDFONT
